<?xml version="1.0" encoding="UTF-8"?>
<svg version="1.1" xmlns="http://www.w3.org/2000/svg" width="720" height="720">
<path d="M0 0 C237.6 0 475.2 0 720 0 C720 237.6 720 475.2 720 720 C482.4 720 244.8 720 0 720 C0 482.4 0 244.8 0 0 Z " fill="#000000" transform="translate(0,0)"/>
<path d="M0 0 C142.43980738 0 142.43980738 0 174 29 C174.48952148 29.44714355 174.97904297 29.89428711 175.48339844 30.35498047 C183.18627684 37.46927495 189.45914096 45.05436658 195 54 C195.37753418 54.5976416 195.75506836 55.1952832 196.14404297 55.81103516 C212.45001861 81.92110685 217.44512249 112.17083912 217.375 142.5 C217.37412384 143.42686615 217.37324768 144.3537323 217.37234497 145.3086853 C217.32805874 159.52272743 216.76387866 173.21172088 213 187 C212.64591064 188.31653564 212.64591064 188.31653564 212.28466797 189.65966797 C207.38001903 207.21963932 199.51815966 223.79426975 188 238 C187.40348633 238.76038574 187.40348633 238.76038574 186.79492188 239.53613281 C176.71143692 252.36755984 165.23051268 261.994189 151 270 C150.21753906 270.45890625 149.43507813 270.9178125 148.62890625 271.390625 C143.18699106 274.37094597 137.4494064 276.29482918 131.5625 278.1875 C130.40016846 278.56285889 130.40016846 278.56285889 129.21435547 278.94580078 C88.04502804 291.67618658 43.09264721 283 0 283 C0 189.61 0 96.22 0 0 Z " fill="#FD0000" transform="translate(493,217)"/>
<path d="M0 0 C167.57824715 0 167.57824715 0 192.30859375 24.1796875 C207.09823133 39.67768218 213.1788452 59.60039505 213.24023438 80.61083984 C213.24987275 82.5987554 213.28104299 84.58652873 213.3125 86.57421875 C213.39871447 108.10628221 205.21914069 127.85308776 190.51611328 143.49707031 C185.26261361 148.70488738 179.06454364 152.72827618 172.8112793 156.625 C172.09602585 157.07101562 171.3807724 157.51703125 170.6438446 157.9765625 C169.83014153 158.48316406 169.83014153 158.48316406 169 159 C182.31404126 193.44225863 182.31404126 193.44225863 195.8125 227.8125 C200.56598571 239.82170398 205.29890129 251.8385334 209.9871521 263.87338257 C210.61646329 265.48854254 211.24635847 267.1034751 211.87686157 268.71817017 C212.74126566 270.93253312 213.60342559 273.14775533 214.46484375 275.36328125 C214.72339142 276.02477173 214.98193909 276.68626221 215.24832153 277.36779785 C217 281.88527244 217 281.88527244 217 283 C193.57 283 170.14 283 146 283 C135.5 252.4375 135.5 252.4375 132.24023438 242.94702148 C125.96077086 224.6709444 119.66026477 206.40258073 113.25 188.171875 C112.86972656 187.08648437 112.48945312 186.00109375 112.09765625 184.8828125 C111.33808757 182.7149332 110.57482124 180.54834723 109.80859375 178.3828125 C109.43863281 177.32320312 109.06867188 176.26359375 108.6875 175.171875 C108.36136719 174.2447168 108.03523438 173.31755859 107.69921875 172.36230469 C107 170 107 170 107 167 C92.15 167 77.3 167 62 167 C62 205.28 62 243.56 62 283 C41.54 283 21.08 283 0 283 C0 189.61 0 96.22 0 0 Z " fill="#FE0000" transform="translate(13,217)"/>
<path d="M0 0 C62.37 0 124.74 0 189 0 C189 18.81 189 37.62 189 57 C147.09 57 105.18 57 62 57 C62 75.48 62 93.96 62 113 C94.67 113 127.34 113 161 113 C161 131.15 161 149.3 161 168 C128.33 168 95.66 168 62 168 C62 187.14 62 206.28 62 226 C103.91 226 145.82 226 189 226 C189 244.81 189 263.62 189 283 C126.63 283 64.26 283 0 283 C0 189.61 0 96.22 0 0 Z " fill="#FC0000" transform="translate(272,217)"/>
<path d="M0 0 C50.31019939 0 50.31019939 0 67.1875 15.75 C86.44745277 35.97681787 90.58114376 63.54233598 90.19140625 90.30078125 C90.01659173 96.99980541 89.34933111 103.42414586 88 110 C87.72542969 111.45792969 87.72542969 111.45792969 87.4453125 112.9453125 C83.43742787 131.50033393 73.69245281 149.87998316 58.11328125 161.07421875 C39.95999178 172.39332866 21.75374488 169 0 169 C0 113.23 0 57.46 0 0 Z " fill="#000000" transform="translate(557,274)"/>
<path d="M0 0 C8.435625 -0.103125 16.87125 -0.20625 25.5625 -0.3125 C28.1929126 -0.35802002 30.8233252 -0.40354004 33.53344727 -0.45043945 C49.04884656 -0.60654906 64.89251418 -0.20248183 77 11 C85.39514582 20.47891224 86.45583689 29.05155496 86.24609375 41.4140625 C85.62202142 50.50768782 81.72258493 58.33955435 75.21875 64.7578125 C70.0533752 68.9705567 64.29975288 71.01542518 58 73 C57.01 73.33 56.02 73.66 55 74 C53.20529613 74.08813433 51.40745761 74.1176372 49.6105957 74.11352539 C47.93616394 74.11334412 47.93616394 74.11334412 46.22790527 74.11315918 C45.05570435 74.10804321 43.88350342 74.10292725 42.67578125 74.09765625 C41.05851135 74.09614563 41.05851135 74.09614563 39.40856934 74.09460449 C35.37653542 74.0893679 31.34451666 74.07540666 27.3125 74.0625 C18.299375 74.041875 9.28625 74.02125 0 74 C0 49.58 0 25.16 0 0 Z " fill="#020000" transform="translate(75,265)"/>
</svg>
